M48
; DRILL file {KiCad 8.0.2} date 2024-09-13T22:40:20+0900
; FORMAT={-:-/ absolute / metric / decimal}
; #@! TF.CreationDate,2024-09-13T22:40:20+09:00
; #@! TF.GenerationSoftware,Kicad,Pcbnew,8.0.2
; #@! TF.FileFunction,Plated,1,2,PTH
FMAT,2
METRIC
; #@! TA.AperFunction,Plated,PTH,ViaDrill
T1C0.300
; #@! TA.AperFunction,Plated,PTH,ComponentDrill
T2C0.800
; #@! TA.AperFunction,Plated,PTH,ComponentDrill
T3C1.000
; #@! TA.AperFunction,Plated,PTH,ComponentDrill
T4C1.020
; #@! TA.AperFunction,Plated,PTH,ComponentDrill
T5C1.100
; #@! TA.AperFunction,Plated,PTH,ComponentDrill
T6C1.700
; #@! TA.AperFunction,Plated,PTH,ComponentDrill
T7C2.600
%
G90
G05
T1
X68.58Y-64.77
X68.58Y-72.39
X68.58Y-80.01
X68.58Y-87.63
X70.104Y-95.504
X73.025Y-109.855
X78.105Y-78.74
X78.105Y-81.28
X78.105Y-83.82
X78.105Y-87.63
X78.105Y-91.44
X78.105Y-93.98
X78.105Y-96.52
X78.105Y-104.14
X79.375Y-57.15
X79.375Y-62.23
X79.375Y-67.31
X81.915Y-78.74
X81.915Y-81.28
X81.915Y-83.82
X81.915Y-86.36
X81.915Y-89.535
X81.915Y-92.075
X81.915Y-94.615
X81.915Y-97.155
X82.55Y-72.39
X82.55Y-102.87
X88.9Y-72.644
X88.9Y-75.184
X88.9Y-77.724
X88.9Y-80.264
X88.9Y-82.804
X88.9Y-85.344
X88.9Y-87.884
X88.9Y-90.424
X89.916Y-101.6
X90.17Y-109.855
X90.805Y-57.15
X90.932Y-98.933
X91.948Y-62.484
X92.075Y-72.39
X92.075Y-74.93
X92.075Y-77.47
X92.075Y-80.01
X92.075Y-82.55
X92.075Y-85.09
X92.075Y-87.63
X92.075Y-90.17
X92.075Y-104.14
X93.345Y-109.855
X94.615Y-113.665
X96.52Y-109.54
X97.155Y-104.14
X98.395Y-110.49
X99.06Y-65.405
X101.6Y-69.215
X101.6Y-71.755
X101.6Y-74.295
X101.6Y-76.835
X101.6Y-79.375
X101.6Y-81.915
X101.6Y-84.455
X102.108Y-88.9
X102.108Y-91.44
X102.108Y-93.98
X102.235Y-113.665
X102.87Y-109.22
X107.315Y-67.31
X107.315Y-72.39
X107.315Y-77.47
X107.315Y-82.55
X107.315Y-87.63
X107.315Y-92.71
X107.315Y-97.79
X107.315Y-102.87
X107.315Y-107.95
X107.315Y-113.03
X112.395Y-67.31
X112.395Y-72.39
X112.395Y-77.47
X112.395Y-82.55
X112.395Y-87.63
X112.395Y-92.71
X112.395Y-97.79
X112.395Y-102.87
X112.395Y-107.95
X112.395Y-113.03
X113.03Y-55.245
X113.03Y-59.055
X115.57Y-62.865
X116.84Y-59.69
X117.475Y-67.31
X117.475Y-72.39
X117.475Y-77.47
X117.475Y-82.55
X117.475Y-87.63
X117.475Y-92.71
X117.475Y-97.79
X117.475Y-102.87
X117.475Y-108.585
X117.475Y-113.03
X118.11Y-55.245
X118.11Y-59.055
X121.285Y-93.98
X121.285Y-96.52
X121.285Y-99.06
X121.92Y-64.77
X123.19Y-91.44
X125.095Y-73.66
X126.365Y-87.63
X127.635Y-91.44
X127.635Y-94.615
X127.635Y-97.79
X128.27Y-64.77
X128.905Y-87.63
X129.54Y-103.505
X129.54Y-106.045
X129.54Y-109.855
X129.54Y-113.665
X130.81Y-91.44
X130.81Y-94.615
X130.81Y-97.79
X133.35Y-77.47
X134.62Y-103.505
X134.62Y-106.045
X134.62Y-109.855
X134.62Y-113.665
X137.16Y-55.245
X137.16Y-60.325
X138.43Y-64.77
X138.43Y-67.31
X138.43Y-69.85
X138.43Y-72.39
X138.43Y-74.93
X138.43Y-77.47
X138.43Y-80.01
X138.43Y-82.55
X138.43Y-85.09
X138.43Y-87.63
X138.43Y-95.25
X141.605Y-55.245
X141.605Y-60.325
X141.605Y-104.775
X141.605Y-114.935
X146.05Y-55.245
X146.05Y-60.325
X146.05Y-104.775
X146.05Y-109.855
X146.05Y-114.935
X146.685Y-64.77
X146.685Y-71.755
X146.685Y-74.295
X146.685Y-76.835
X146.685Y-79.375
X146.685Y-81.915
X146.685Y-84.455
X146.685Y-86.995
X146.685Y-89.535
X146.685Y-95.25
X147.955Y-97.79
X150.495Y-55.245
X150.495Y-60.325
X150.495Y-100.33
X151.13Y-109.855
X153.67Y-93.98
X155.575Y-71.12
X159.385Y-71.12
X159.385Y-93.98
T2
X104.765Y-64.77
X104.765Y-67.31
X104.765Y-69.85
X104.765Y-72.39
X104.765Y-74.93
X104.765Y-77.47
X104.765Y-80.01
X104.765Y-82.55
X104.765Y-85.09
X104.765Y-87.63
X104.765Y-90.17
X104.765Y-92.71
X104.765Y-95.25
X104.765Y-97.79
X104.765Y-100.33
X104.765Y-102.87
X104.765Y-105.41
X104.765Y-107.95
X104.765Y-110.49
X104.765Y-113.03
X117.515Y-61.595
X118.015Y-57.15
X120.005Y-64.77
X120.005Y-67.31
X120.005Y-69.85
X120.005Y-72.39
X120.005Y-74.93
X120.005Y-77.47
X120.005Y-80.01
X120.005Y-82.55
X120.005Y-85.09
X120.005Y-87.63
X120.005Y-90.17
X120.005Y-92.71
X120.005Y-95.25
X120.005Y-97.79
X120.005Y-100.33
X120.005Y-102.87
X120.005Y-105.41
X120.005Y-107.95
X120.005Y-110.49
X120.005Y-113.03
X120.015Y-57.15
X120.015Y-61.595
X123.815Y-64.77
X123.815Y-67.31
X123.815Y-69.85
X123.815Y-72.39
X123.815Y-74.93
X123.815Y-77.47
X123.815Y-80.01
X123.815Y-82.55
X123.815Y-85.09
X123.815Y-87.63
X127.0Y-106.045
X127.0Y-109.855
X127.0Y-113.665
X131.435Y-64.77
X131.435Y-67.31
X131.435Y-69.85
X131.435Y-72.39
X131.435Y-74.93
X131.435Y-77.47
X131.435Y-80.01
X131.435Y-82.55
X131.435Y-85.09
X131.435Y-87.63
X135.255Y-64.77
X135.255Y-67.31
X135.255Y-69.85
X135.255Y-72.39
X135.255Y-74.93
X135.255Y-77.47
X135.255Y-80.01
X135.255Y-82.55
X135.255Y-85.09
X135.255Y-87.63
X135.255Y-90.17
X135.255Y-92.71
X135.255Y-95.25
X135.255Y-97.79
X137.16Y-106.045
X137.16Y-109.855
X137.16Y-113.665
X138.43Y-100.965
X140.93Y-100.965
X150.495Y-64.77
X150.495Y-67.31
X150.495Y-69.85
X150.495Y-72.39
X150.495Y-74.93
X150.495Y-77.47
X150.495Y-80.01
X150.495Y-82.55
X150.495Y-85.09
X150.495Y-87.63
X150.495Y-90.17
X150.495Y-92.71
X150.495Y-95.25
X150.495Y-97.79
T3
X68.58Y-100.345
X68.58Y-102.885
X68.58Y-105.425
X74.93Y-113.665
X77.47Y-113.665
X80.01Y-113.665
X82.55Y-113.665
X85.09Y-113.665
X87.63Y-113.665
X90.17Y-113.665
X100.965Y-97.79
X100.965Y-100.33
X100.965Y-102.87
X123.815Y-107.95
X123.815Y-110.49
X123.815Y-113.03
X143.51Y-109.855
X148.51Y-109.855
T4
X76.2Y-57.15
X76.2Y-59.69
X76.2Y-62.23
X76.2Y-64.77
X76.2Y-67.31
X76.2Y-69.85
X76.2Y-72.39
X76.2Y-74.93
X76.2Y-77.47
X76.2Y-80.01
X76.2Y-82.55
X76.2Y-85.09
X76.2Y-87.63
X76.2Y-90.17
X76.2Y-92.71
X76.2Y-95.25
X76.2Y-97.79
X76.2Y-100.33
X76.2Y-102.87
X76.2Y-105.41
X82.55Y-105.18
X85.09Y-105.18
X87.63Y-105.18
X93.98Y-57.15
X93.98Y-59.69
X93.98Y-62.23
X93.98Y-64.77
X93.98Y-67.31
X93.98Y-69.85
X93.98Y-72.39
X93.98Y-74.93
X93.98Y-77.47
X93.98Y-80.01
X93.98Y-82.55
X93.98Y-85.09
X93.98Y-87.63
X93.98Y-90.17
X93.98Y-92.71
X93.98Y-95.25
X93.98Y-97.79
X93.98Y-100.33
X93.98Y-102.87
X93.98Y-105.41
T5
X101.6Y-55.825
X101.6Y-60.325
X108.1Y-55.825
X108.1Y-60.325
T6
X154.305Y-102.235
T7
X154.305Y-97.235
X154.305Y-107.235
X158.805Y-102.235
M30
