G04 #@! TF.GenerationSoftware,KiCad,Pcbnew,8.0.2*
G04 #@! TF.CreationDate,2024-09-13T22:39:51+09:00*
G04 #@! TF.ProjectId,rp2c02-rp2040,72703263-3032-42d7-9270-323034302e6b,rev?*
G04 #@! TF.SameCoordinates,Original*
G04 #@! TF.FileFunction,Legend,Bot*
G04 #@! TF.FilePolarity,Positive*
%FSLAX46Y46*%
G04 Gerber Fmt 4.6, Leading zero omitted, Abs format (unit mm)*
G04 Created by KiCad (PCBNEW 8.0.2) date 2024-09-13 22:39:51*
%MOMM*%
%LPD*%
G01*
G04 APERTURE LIST*
%ADD10C,3.200000*%
%ADD11C,2.000000*%
%ADD12C,1.600000*%
%ADD13O,1.600000X1.600000*%
%ADD14C,2.550000*%
%ADD15C,3.616000*%
%ADD16R,1.600000X1.600000*%
%ADD17O,1.800000X1.800000*%
%ADD18O,1.500000X1.500000*%
%ADD19O,1.700000X1.700000*%
%ADD20R,1.700000X1.700000*%
%ADD21R,2.000000X2.000000*%
G04 APERTURE END LIST*
%LPC*%
D10*
X68580000Y-113030000D03*
X157480000Y-57150000D03*
D11*
X108100000Y-60325000D03*
X101600000Y-60325000D03*
X108100000Y-55825000D03*
X101600000Y-55825000D03*
D12*
X127000000Y-109855000D03*
D13*
X137160000Y-109855000D03*
D10*
X157480000Y-113030000D03*
D14*
X154305000Y-102235000D03*
D15*
X158805000Y-102235000D03*
X154305000Y-107235000D03*
X154305000Y-97235000D03*
D16*
X120015000Y-57150000D03*
D12*
X118015000Y-57150000D03*
X127000000Y-113665000D03*
D13*
X137160000Y-113665000D03*
D17*
X82365000Y-57280000D03*
D18*
X82665000Y-60310000D03*
X87515000Y-60310000D03*
D17*
X87815000Y-57280000D03*
D19*
X76200000Y-57150000D03*
X76200000Y-59690000D03*
D20*
X76200000Y-62230000D03*
D19*
X76200000Y-64770000D03*
X76200000Y-67310000D03*
X76200000Y-69850000D03*
X76200000Y-72390000D03*
D20*
X76200000Y-74930000D03*
D19*
X76200000Y-77470000D03*
X76200000Y-80010000D03*
X76200000Y-82550000D03*
X76200000Y-85090000D03*
D20*
X76200000Y-87630000D03*
D19*
X76200000Y-90170000D03*
X76200000Y-92710000D03*
X76200000Y-95250000D03*
X76200000Y-97790000D03*
D20*
X76200000Y-100330000D03*
D19*
X76200000Y-102870000D03*
X76200000Y-105410000D03*
X93980000Y-105410000D03*
X93980000Y-102870000D03*
D20*
X93980000Y-100330000D03*
D19*
X93980000Y-97790000D03*
X93980000Y-95250000D03*
X93980000Y-92710000D03*
X93980000Y-90170000D03*
D20*
X93980000Y-87630000D03*
D19*
X93980000Y-85090000D03*
X93980000Y-82550000D03*
X93980000Y-80010000D03*
X93980000Y-77470000D03*
D20*
X93980000Y-74930000D03*
D19*
X93980000Y-72390000D03*
X93980000Y-69850000D03*
X93980000Y-67310000D03*
X93980000Y-64770000D03*
D20*
X93980000Y-62230000D03*
D19*
X93980000Y-59690000D03*
X93980000Y-57150000D03*
X82550000Y-105180000D03*
D20*
X85090000Y-105180000D03*
D19*
X87630000Y-105180000D03*
D12*
X127000000Y-106045000D03*
D13*
X137160000Y-106045000D03*
D21*
X143510000Y-109855000D03*
D11*
X148510000Y-109855000D03*
D12*
X138430000Y-100965000D03*
X140930000Y-100965000D03*
D20*
X68580000Y-100345000D03*
D19*
X68580000Y-102885000D03*
X68580000Y-105425000D03*
D12*
X120015000Y-61595000D03*
X117515000Y-61595000D03*
D20*
X100965000Y-97790000D03*
D19*
X100965000Y-100330000D03*
X100965000Y-102870000D03*
D16*
X150495000Y-97790000D03*
D13*
X150495000Y-95250000D03*
X150495000Y-92710000D03*
X150495000Y-90170000D03*
X150495000Y-87630000D03*
X150495000Y-85090000D03*
X150495000Y-82550000D03*
X150495000Y-80010000D03*
X150495000Y-77470000D03*
X150495000Y-74930000D03*
X150495000Y-72390000D03*
X150495000Y-69850000D03*
X150495000Y-67310000D03*
X150495000Y-64770000D03*
X135255000Y-64770000D03*
X135255000Y-67310000D03*
X135255000Y-69850000D03*
X135255000Y-72390000D03*
X135255000Y-74930000D03*
X135255000Y-77470000D03*
X135255000Y-80010000D03*
X135255000Y-82550000D03*
X135255000Y-85090000D03*
X135255000Y-87630000D03*
X135255000Y-90170000D03*
X135255000Y-92710000D03*
X135255000Y-95250000D03*
X135255000Y-97790000D03*
D16*
X123815000Y-64770000D03*
D13*
X123815000Y-67310000D03*
X123815000Y-69850000D03*
X123815000Y-72390000D03*
X123815000Y-74930000D03*
X123815000Y-77470000D03*
X123815000Y-80010000D03*
X123815000Y-82550000D03*
X123815000Y-85090000D03*
X123815000Y-87630000D03*
X131435000Y-87630000D03*
X131435000Y-85090000D03*
X131435000Y-82550000D03*
X131435000Y-80010000D03*
X131435000Y-77470000D03*
X131435000Y-74930000D03*
X131435000Y-72390000D03*
X131435000Y-69850000D03*
X131435000Y-67310000D03*
X131435000Y-64770000D03*
D20*
X123815000Y-107950000D03*
D19*
X123815000Y-110490000D03*
X123815000Y-113030000D03*
D20*
X90170000Y-113665000D03*
D19*
X87630000Y-113665000D03*
X85090000Y-113665000D03*
X82550000Y-113665000D03*
X80010000Y-113665000D03*
X77470000Y-113665000D03*
X74930000Y-113665000D03*
D16*
X104765000Y-64770000D03*
D13*
X104765000Y-67310000D03*
X104765000Y-69850000D03*
X104765000Y-72390000D03*
X104765000Y-74930000D03*
X104765000Y-77470000D03*
X104765000Y-80010000D03*
X104765000Y-82550000D03*
X104765000Y-85090000D03*
X104765000Y-87630000D03*
X104765000Y-90170000D03*
X104765000Y-92710000D03*
X104765000Y-95250000D03*
X104765000Y-97790000D03*
X104765000Y-100330000D03*
X104765000Y-102870000D03*
X104765000Y-105410000D03*
X104765000Y-107950000D03*
X104765000Y-110490000D03*
X104765000Y-113030000D03*
X120005000Y-113030000D03*
X120005000Y-110490000D03*
X120005000Y-107950000D03*
X120005000Y-105410000D03*
X120005000Y-102870000D03*
X120005000Y-100330000D03*
X120005000Y-97790000D03*
X120005000Y-95250000D03*
X120005000Y-92710000D03*
X120005000Y-90170000D03*
X120005000Y-87630000D03*
X120005000Y-85090000D03*
X120005000Y-82550000D03*
X120005000Y-80010000D03*
X120005000Y-77470000D03*
X120005000Y-74930000D03*
X120005000Y-72390000D03*
X120005000Y-69850000D03*
X120005000Y-67310000D03*
X120005000Y-64770000D03*
D10*
X68580000Y-57150000D03*
%LPD*%
M02*
